<?xml version="1.0" encoding="utf-8"?>
<svg xmlns="http://www.w3.org/2000/svg" xmlns:xlink="http://www.w3.org/1999/xlink" style="background: none; opacity: 0.4; display: block; position: relative; shape-rendering: auto;" width="220" height="220" preserveAspectRatio="xMidYMid" viewBox="0 0 161 161"><g transform="scale(0.63)" data-fill="c2" style="fill: rgb(157, 157, 157);">
<!-- Generator: Adobe Illustrator 21.0.0, SVG Export Plug-In . SVG Version: 6.00 Build 0)  -->







<g data-idx="0" data-dup="" dx="-128" dy="-128" style="transform-origin: 64px 64px; animation: 13.1111s linear 0s infinite normal forwards running tremble-0a0b816f-38ad-4c59-8b45-14edcf789b98;"><g transform="translate(-128,-128)"><path fill="none" stroke="#777777" stroke-width="8" stroke-linecap="round" stroke-linejoin="round" stroke-miterlimit="10" d="
	M165.837,211.092c4.524-4.524,11.595,2.547,16.119-1.977c4.525-4.525-2.546-11.596,1.98-16.122
	c4.524-4.524,11.595,2.547,16.119-1.977c4.527-4.527-2.544-11.598,1.983-16.125c4.527-4.527,11.598,2.544,16.125-1.983" data-stroke="c1" style="stroke: rgb(241, 242, 243);"></path></g></g><g data-idx="0" data-dup="" dx="128" dy="-128" style="transform-origin: 320px 64px; animation: 11.1111s linear 0s infinite normal forwards running tremble-0a0b816f-38ad-4c59-8b45-14edcf789b98;"><g transform="translate(128,-128)"><path fill="none" stroke="#777777" stroke-width="8" stroke-linecap="round" stroke-linejoin="round" stroke-miterlimit="10" d="
	M165.837,211.092c4.524-4.524,11.595,2.547,16.119-1.977c4.525-4.525-2.546-11.596,1.98-16.122
	c4.524-4.524,11.595,2.547,16.119-1.977c4.527-4.527-2.544-11.598,1.983-16.125c4.527-4.527,11.598,2.544,16.125-1.983" data-stroke="c1" style="stroke: rgb(241, 242, 243);"></path></g></g><g data-idx="1" data-dup="" dx="-128" dy="-128" style="transform-origin: -64px 64.001px; animation: 11.1111s linear 0s infinite normal forwards running tremble-0a0b816f-38ad-4c59-8b45-14edcf789b98;"><g transform="translate(-128,-128)"><path fill="none" stroke="#000000" stroke-width="8" stroke-linecap="round" stroke-linejoin="round" stroke-miterlimit="10" d="
	M54.454,178.919c2.262,2.262-1.274,5.797,0.988,8.059c2.263,2.263,5.798-1.273,8.061,0.99c2.262,2.262-1.274,5.798,0.988,8.06
	c2.264,2.264,5.799-1.272,8.063,0.992c2.264,2.264-1.272,5.799,0.992,8.063" data-stroke="c2" style="stroke: rgb(157, 157, 157);"></path></g></g><g data-idx="1" data-dup="" dx="128" dy="-128" style="transform-origin: 192px 64.001px; animation: 11.1111s linear 0s infinite normal forwards running tremble-0a0b816f-38ad-4c59-8b45-14edcf789b98;"><g transform="translate(128,-128)"><path fill="none" stroke="#000000" stroke-width="8" stroke-linecap="round" stroke-linejoin="round" stroke-miterlimit="10" d="
	M54.454,178.919c2.262,2.262-1.274,5.797,0.988,8.059c2.263,2.263,5.798-1.273,8.061,0.99c2.262,2.262-1.274,5.798,0.988,8.06
	c2.264,2.264,5.799-1.272,8.063,0.992c2.264,2.264-1.272,5.799,0.992,8.063" data-stroke="c2" style="stroke: rgb(157, 157, 157);"></path></g></g><g data-idx="2" data-dup="" dx="-128" dy="-128" style="transform-origin: -64px -64px; animation: 11.1111s linear 0s infinite normal forwards running tremble-0a0b816f-38ad-4c59-8b45-14edcf789b98;"><g transform="translate(-128,-128)"><path fill="none" stroke="#777777" stroke-width="8" stroke-linecap="round" stroke-linejoin="round" stroke-miterlimit="10" d="
	M37.837,83.092c4.524-4.524,11.595,2.547,16.119-1.977c4.525-4.525-2.546-11.596,1.98-16.122c4.524-4.524,11.595,2.547,16.119-1.977
	c4.527-4.527-2.544-11.598,1.983-16.125c4.527-4.527,11.598,2.544,16.125-1.983" data-stroke="c1" style="stroke: rgb(241, 242, 243);"></path></g></g><g data-idx="2" data-dup="" dx="128" dy="-128" style="transform-origin: 192px -64px; animation: 11.1111s linear 0s infinite normal forwards running tremble-0a0b816f-38ad-4c59-8b45-14edcf789b98;"><g transform="translate(128,-128)"><path fill="none" stroke="#777777" stroke-width="8" stroke-linecap="round" stroke-linejoin="round" stroke-miterlimit="10" d="
	M37.837,83.092c4.524-4.524,11.595,2.547,16.119-1.977c4.525-4.525-2.546-11.596,1.98-16.122c4.524-4.524,11.595,2.547,16.119-1.977
	c4.527-4.527-2.544-11.598,1.983-16.125c4.527-4.527,11.598,2.544,16.125-1.983" data-stroke="c1" style="stroke: rgb(241, 242, 243);"></path></g></g><g data-idx="3" data-dup="" dx="-128" dy="-128" style="transform-origin: 64px -63.999px; animation: 11.1111s linear 0s infinite normal forwards running tremble-0a0b816f-38ad-4c59-8b45-14edcf789b98;"><g transform="translate(-128,-128)"><path fill="none" stroke="#000000" stroke-width="8" stroke-linecap="round" stroke-linejoin="round" stroke-miterlimit="10" d="
	M182.454,50.919c2.262,2.262-1.274,5.797,0.988,8.059c2.263,2.263,5.798-1.273,8.061,0.99c2.262,2.262-1.274,5.798,0.988,8.06
	c2.264,2.264,5.799-1.272,8.063,0.992c2.264,2.264-1.272,5.799,0.992,8.063" data-stroke="c2" style="stroke: rgb(157, 157, 157);"></path></g></g><g data-idx="3" data-dup="" dx="128" dy="-128" style="transform-origin: 320px -63.999px; animation: 11.1111s linear 0s infinite normal forwards running tremble-0a0b816f-38ad-4c59-8b45-14edcf789b98;"><g transform="translate(128,-128)"><path fill="none" stroke="#000000" stroke-width="8" stroke-linecap="round" stroke-linejoin="round" stroke-miterlimit="10" d="
	M182.454,50.919c2.262,2.262-1.274,5.797,0.988,8.059c2.263,2.263,5.798-1.273,8.061,0.99c2.262,2.262-1.274,5.798,0.988,8.06
	c2.264,2.264,5.799-1.272,8.063,0.992c2.264,2.264-1.272,5.799,0.992,8.063" data-stroke="c2" style="stroke: rgb(157, 157, 157);"></path></g></g><g data-idx="0" data-dup="" dx="-128" dy="128" style="transform-origin: 64px 320px; animation: 11.1111s linear 0s infinite normal forwards running tremble-0a0b816f-38ad-4c59-8b45-14edcf789b98;"><g transform="translate(-128,128)"><path fill="none" stroke="#777777" stroke-width="8" stroke-linecap="round" stroke-linejoin="round" stroke-miterlimit="10" d="
	M165.837,211.092c4.524-4.524,11.595,2.547,16.119-1.977c4.525-4.525-2.546-11.596,1.98-16.122
	c4.524-4.524,11.595,2.547,16.119-1.977c4.527-4.527-2.544-11.598,1.983-16.125c4.527-4.527,11.598,2.544,16.125-1.983" data-stroke="c1" style="stroke: rgb(241, 242, 243);"></path></g></g><g data-idx="0" data-dup="" dx="128" dy="128" style="transform-origin: 320px 320px; animation: 11.1111s linear 0s infinite normal forwards running tremble-0a0b816f-38ad-4c59-8b45-14edcf789b98;"><g transform="translate(128,128)"><path fill="none" stroke="#777777" stroke-width="8" stroke-linecap="round" stroke-linejoin="round" stroke-miterlimit="10" d="
	M165.837,211.092c4.524-4.524,11.595,2.547,16.119-1.977c4.525-4.525-2.546-11.596,1.98-16.122
	c4.524-4.524,11.595,2.547,16.119-1.977c4.527-4.527-2.544-11.598,1.983-16.125c4.527-4.527,11.598,2.544,16.125-1.983" data-stroke="c1" style="stroke: rgb(241, 242, 243);"></path></g></g><g data-idx="1" data-dup="" dx="-128" dy="128" style="transform-origin: -64px 320.001px; animation: 11.1111s linear 0s infinite normal forwards running tremble-0a0b816f-38ad-4c59-8b45-14edcf789b98;"><g transform="translate(-128,128)"><path fill="none" stroke="#000000" stroke-width="8" stroke-linecap="round" stroke-linejoin="round" stroke-miterlimit="10" d="
	M54.454,178.919c2.262,2.262-1.274,5.797,0.988,8.059c2.263,2.263,5.798-1.273,8.061,0.99c2.262,2.262-1.274,5.798,0.988,8.06
	c2.264,2.264,5.799-1.272,8.063,0.992c2.264,2.264-1.272,5.799,0.992,8.063" data-stroke="c2" style="stroke: rgb(157, 157, 157);"></path></g></g><g data-idx="1" data-dup="" dx="128" dy="128" style="transform-origin: 192px 320.001px; animation: 11.1111s linear 0s infinite normal forwards running tremble-0a0b816f-38ad-4c59-8b45-14edcf789b98;"><g transform="translate(128,128)"><path fill="none" stroke="#000000" stroke-width="8" stroke-linecap="round" stroke-linejoin="round" stroke-miterlimit="10" d="
	M54.454,178.919c2.262,2.262-1.274,5.797,0.988,8.059c2.263,2.263,5.798-1.273,8.061,0.99c2.262,2.262-1.274,5.798,0.988,8.06
	c2.264,2.264,5.799-1.272,8.063,0.992c2.264,2.264-1.272,5.799,0.992,8.063" data-stroke="c2" style="stroke: rgb(157, 157, 157);"></path></g></g><g data-idx="2" data-dup="" dx="-128" dy="128" style="transform-origin: -64px 192px; animation: 11.1111s linear 0s infinite normal forwards running tremble-0a0b816f-38ad-4c59-8b45-14edcf789b98;"><g transform="translate(-128,128)"><path fill="none" stroke="#777777" stroke-width="8" stroke-linecap="round" stroke-linejoin="round" stroke-miterlimit="10" d="
	M37.837,83.092c4.524-4.524,11.595,2.547,16.119-1.977c4.525-4.525-2.546-11.596,1.98-16.122c4.524-4.524,11.595,2.547,16.119-1.977
	c4.527-4.527-2.544-11.598,1.983-16.125c4.527-4.527,11.598,2.544,16.125-1.983" data-stroke="c1" style="stroke: rgb(241, 242, 243);"></path></g></g><g data-idx="2" data-dup="" dx="128" dy="128" style="transform-origin: 192px 192px; animation: 11.1111s linear 0s infinite normal forwards running tremble-0a0b816f-38ad-4c59-8b45-14edcf789b98;"><g transform="translate(128,128)"><path fill="none" stroke="#777777" stroke-width="8" stroke-linecap="round" stroke-linejoin="round" stroke-miterlimit="10" d="
	M37.837,83.092c4.524-4.524,11.595,2.547,16.119-1.977c4.525-4.525-2.546-11.596,1.98-16.122c4.524-4.524,11.595,2.547,16.119-1.977
	c4.527-4.527-2.544-11.598,1.983-16.125c4.527-4.527,11.598,2.544,16.125-1.983" data-stroke="c1" style="stroke: rgb(241, 242, 243);"></path></g></g><g data-idx="3" data-dup="" dx="-128" dy="128" style="transform-origin: 64px 192.001px; animation: 11.1111s linear 0s infinite normal forwards running tremble-0a0b816f-38ad-4c59-8b45-14edcf789b98;"><g transform="translate(-128,128)"><path fill="none" stroke="#000000" stroke-width="8" stroke-linecap="round" stroke-linejoin="round" stroke-miterlimit="10" d="
	M182.454,50.919c2.262,2.262-1.274,5.797,0.988,8.059c2.263,2.263,5.798-1.273,8.061,0.99c2.262,2.262-1.274,5.798,0.988,8.06
	c2.264,2.264,5.799-1.272,8.063,0.992c2.264,2.264-1.272,5.799,0.992,8.063" data-stroke="c2" style="stroke: rgb(157, 157, 157);"></path></g></g><g data-idx="3" data-dup="" dx="128" dy="128" style="transform-origin: 320px 192.001px; animation: 11.1111s linear 0s infinite normal forwards running tremble-0a0b816f-38ad-4c59-8b45-14edcf789b98;"><g transform="translate(128,128)"><path fill="none" stroke="#000000" stroke-width="8" stroke-linecap="round" stroke-linejoin="round" stroke-miterlimit="10" d="
	M182.454,50.919c2.262,2.262-1.274,5.797,0.988,8.059c2.263,2.263,5.798-1.273,8.061,0.99c2.262,2.262-1.274,5.798,0.988,8.06
	c2.264,2.264,5.799-1.272,8.063,0.992c2.264,2.264-1.272,5.799,0.992,8.063" data-stroke="c2" style="stroke: rgb(157, 157, 157);"></path></g></g></g><style id="tremble-0a0b816f-38ad-4c59-8b45-14edcf789b98" data-anikit="">@keyframes tremble-0a0b816f-38ad-4c59-8b45-14edcf789b98 {
  0% { transform: translate(0px,0px) rotate(0deg) scale(1) }
  3.33333% { transform: translate(-0.18923px,1.45485px) rotate(0deg) scale(1) }
  6.66667% { transform: translate(-0.84296px,-1.32524px) rotate(0deg) scale(1) }
  10% { transform: translate(0.67971px,1.00422px) rotate(0deg) scale(1) }
  13.33333% { transform: translate(-0.5056px,0.83616px) rotate(0deg) scale(1) }
  16.66667% { transform: translate(1.31368px,-0.51401px) rotate(0deg) scale(1) }
  20% { transform: translate(-1.21184px,1.49193px) rotate(0deg) scale(1) }
  23.33333% { transform: translate(1.09065px,-0.21259px) rotate(0deg) scale(1) }
  26.66667% { transform: translate(-1.49916px,0.56159px) rotate(0deg) scale(1) }
  30% { transform: translate(1.48086px,1.21228px) rotate(0deg) scale(1) }
  33.33333% { transform: translate(-1.43889px,-1.152px) rotate(0deg) scale(1) }
  36.66667% { transform: translate(1.35914px,1.34835px) rotate(0deg) scale(1) }
  40% { transform: translate(-1.42834px,0.3091px) rotate(0deg) scale(1) }
  43.33333% { transform: translate(1.47472px,-1.49889px) rotate(0deg) scale(1) }
  46.66667% { transform: translate(-0.92402px,1.4416px) rotate(0deg) scale(1) }
  50% { transform: translate(1.0657px,-0.75306px) rotate(0deg) scale(1) }
  53.33333% { transform: translate(-1.19035px,-1.07484px) rotate(0deg) scale(1) }
  56.66667% { transform: translate(0.28828px,0.79337px) rotate(0deg) scale(1) }
  60% { transform: translate(-0.47167px,-1.42789px) rotate(0deg) scale(1) }
  63.33333% { transform: translate(0.64753px,-0.09795px) rotate(0deg) scale(1) }
  66.66667% { transform: translate(0.41006px,-0.26292px) rotate(0deg) scale(1) }
  70% { transform: translate(-0.22477px,-1.3683px) rotate(0deg) scale(1) }
  73.33333% { transform: translate(0.03588px,0.92931px) rotate(0deg) scale(1) }
  76.66667% { transform: translate(-1.01937px,-1.18398px) rotate(0deg) scale(1) }
  80% { transform: translate(0.8724px,-0.60494px) rotate(0deg) scale(1) }
  83.33333% { transform: translate(-0.71151px,1.4786px) rotate(0deg) scale(1) }
  86.66667% { transform: translate(1.40734px,-1.49607px) rotate(0deg) scale(1) }
  90% { transform: translate(-1.33062px,0.46957px) rotate(0deg) scale(1) }
  93.33333% { transform: translate(1.23264px,1.26738px) rotate(0deg) scale(1) }
  96.66667% { transform: translate(-1.48975px,-1.03867px) rotate(0deg) scale(1) }
  100% { transform: translate(0,0) rotate(0) scale(1) }
}</style></svg>