<?xml version="1.0" standalone="no"?>
<!DOCTYPE svg PUBLIC "-//W3C//DTD SVG 20010904//EN"
 "http://www.w3.org/TR/2001/REC-SVG-20010904/DTD/svg10.dtd">
<svg version="1.0" xmlns="http://www.w3.org/2000/svg"
 width="422.000000pt" height="318.000000pt" viewBox="0 0 422.000000 318.000000"
 preserveAspectRatio="xMidYMid meet">

<g transform="translate(0.000000,318.000000) scale(0.100000,-0.100000)"
fill="#d3d3d3" stroke="none">
<path d="M1577 2868 c-29 -40 -67 -93 -85 -117 l-32 -45 0 -603 0 -604 25 -24
24 -25 534 0 c505 0 535 1 550 18 10 10 17 35 17 56 0 21 6 39 13 42 20 7 186
-44 251 -79 32 -17 91 -62 130 -99 62 -60 69 -69 54 -78 -13 -8 -18 -24 -18
-60 0 -44 9 -63 87 -190 l86 -142 101 7 c56 3 126 10 156 13 l55 7 8 63 c5 35
7 66 4 69 -15 14 -27 -13 -27 -58 0 -31 -5 -51 -12 -54 -7 -2 -69 -8 -138 -14
-94 -7 -128 -7 -137 2 -6 7 -46 69 -88 139 -71 117 -76 129 -69 164 4 24 9 33
13 24 9 -22 140 -208 152 -216 29 -18 14 15 -47 102 -90 128 -88 124 -69 124
8 0 15 -6 15 -12 0 -7 12 -25 25 -40 19 -23 33 -28 69 -28 51 0 76 7 76 22 0
7 -20 9 -55 5 -52 -5 -56 -4 -76 24 l-20 29 66 0 c49 0 66 3 63 13 -3 8 -33
13 -90 15 -83 3 -86 4 -109 34 -35 46 -166 148 -226 175 -28 13 -94 34 -145
47 l-93 24 -3 557 -2 558 -92 113 -92 114 -398 0 -398 0 -53 -72z m838 44 c6
-4 48 -53 93 -108 l82 -101 0 -605 c0 -456 -3 -607 -12 -616 -9 -9 -141 -12
-532 -12 l-520 0 -23 22 -23 21 0 590 0 589 77 106 c42 59 81 110 87 114 6 4
180 8 386 8 206 0 380 -4 385 -8z"/>
<path d="M1507 2703 c-4 -3 -7 -10 -7 -15 0 -4 243 -8 541 -8 428 0 540 3 537
13 -4 9 -121 13 -535 15 -291 1 -533 -1 -536 -5z"/>
<path d="M1634 2559 c-18 -20 -19 -40 -19 -329 0 -289 1 -309 19 -329 19 -21
26 -21 398 -21 365 0 379 1 398 20 19 19 20 33 20 328 0 262 -2 311 -16 330
l-15 22 -383 0 c-377 0 -383 0 -402 -21z m780 -15 c14 -13 16 -56 16 -311 0
-262 -2 -299 -17 -315 -15 -17 -40 -18 -383 -18 -271 0 -369 3 -378 12 -9 9
-12 94 -12 320 0 282 1 308 18 317 10 7 152 11 379 11 316 0 364 -2 377 -16z"/>
<path d="M1677 2523 c-4 -3 -7 -141 -7 -305 l0 -298 365 0 365 0 -2 303 -3
302 -356 3 c-195 1 -358 -1 -362 -5z m698 -298 l0 -280 -340 0 -340 0 -3 270
c-1 148 0 275 3 282 3 11 75 13 342 11 l338 -3 0 -280z"/>
<path d="M1731 2466 c-15 -17 1 -56 23 -56 23 0 41 30 29 48 -14 23 -37 26
-52 8z m39 -14 c0 -13 -12 -22 -22 -16 -10 6 -1 24 13 24 5 0 9 -4 9 -8z"/>
<path d="M1820 2365 c-10 -12 -11 -21 -4 -33 15 -22 27 -24 49 -8 16 12 18 18
9 33 -15 24 -38 27 -54 8z m38 -16 c-2 -6 -8 -10 -13 -10 -5 0 -11 4 -13 10
-2 6 4 11 13 11 9 0 15 -5 13 -11z"/>
<path d="M1760 2266 c-27 -33 18 -72 48 -42 13 13 14 20 6 34 -15 23 -38 26
-54 8z m34 -27 c-3 -5 -10 -7 -15 -3 -5 3 -7 10 -3 15 3 5 10 7 15 3 5 -3 7
-10 3 -15z"/>
<path d="M1731 2107 c-18 -23 -2 -49 28 -45 20 2 26 8 26 28 0 29 -34 40 -54
17z m39 -17 c0 -5 -7 -10 -16 -10 -8 0 -12 5 -9 10 3 6 10 10 16 10 5 0 9 -4
9 -10z"/>
<path d="M2246 1745 c-4 -12 -37 -15 -183 -17 l-178 -3 0 -35 0 -35 174 -3
c142 -2 176 -5 185 -18 9 -12 29 -14 91 -12 l80 3 3 68 3 67 -84 0 c-66 0 -86
-3 -91 -15z m152 -52 l3 -43 -64 0 c-48 0 -66 4 -71 15 -4 13 -35 15 -186 15
-113 0 -180 4 -180 10 0 6 67 10 181 10 174 0 181 1 186 20 5 19 12 21 67 18
l61 -3 3 -42z"/>
<path d="M1197 1347 c-10 -7 -67 -117 -127 -246 -108 -229 -123 -276 -104
-325 7 -17 44 -22 44 -6 0 6 -4 10 -10 10 -5 0 -10 22 -10 49 0 40 17 84 105
272 l104 224 773 2 773 2 138 -230 c119 -200 137 -236 137 -273 l0 -43 -127
-6 c-149 -7 -210 -24 -278 -76 l-49 -37 -41 50 c-45 55 -61 66 -148 97 -69 25
-109 57 -143 115 -22 37 -24 50 -18 90 l7 47 18 -24 c10 -13 19 -29 19 -35 0
-12 39 -41 61 -46 17 -4 13 69 -7 140 -15 52 -20 57 -61 46 -31 -8 -29 -24 2
-24 28 0 38 -18 48 -82 7 -48 -13 -52 -34 -6 -16 37 -40 54 -63 45 -24 -10
-22 -112 4 -155 11 -18 20 -35 20 -37 0 -3 -133 -5 -295 -5 -197 0 -295 -3
-295 -10 0 -7 100 -10 306 -10 297 2 307 1 328 -19 12 -12 40 -30 62 -41 l39
-19 -482 -1 c-325 0 -483 -3 -483 -10 0 -7 169 -10 521 -10 391 1 524 -2 535
-11 8 -6 30 -33 50 -60 34 -47 35 -49 19 -73 -16 -25 -15 -30 25 -146 40 -111
54 -139 66 -127 2 2 -14 55 -36 116 -22 62 -40 121 -40 130 0 25 91 108 143
131 24 11 61 22 83 25 38 7 41 5 72 -38 17 -25 32 -47 32 -50 0 -3 -21 -10
-46 -16 -26 -7 -63 -20 -84 -31 -46 -24 -140 -97 -140 -110 0 -17 20 -11 48
16 48 45 96 74 170 98 l71 23 76 -109 c69 -97 95 -125 95 -99 0 5 -51 80 -113
167 l-114 159 101 5 101 5 3 50 c2 48 -3 59 -138 285 -80 134 -149 240 -162
247 -34 19 -1527 19 -1551 0z"/>
<path d="M1380 1305 c-9 -11 -16 -12 -30 -2 -13 8 -27 8 -46 2 -40 -14 -104
-136 -111 -212 -4 -42 -20 -87 -59 -165 -30 -59 -54 -112 -54 -118 0 -29 21 1
72 103 40 80 58 131 63 173 7 58 42 141 73 177 8 9 28 17 44 17 l29 0 -25 -33
c-26 -34 -33 -57 -18 -57 5 0 24 22 43 50 29 43 39 50 67 50 17 0 32 -3 32 -6
0 -3 -12 -21 -26 -40 -43 -56 -17 -52 33 5 40 46 50 52 74 47 31 -6 49 8 23
18 -27 10 -59 7 -81 -9 -18 -13 -22 -13 -33 0 -16 19 -54 19 -70 0z"/>
<path d="M1546 1259 c-53 -57 -66 -79 -48 -79 4 0 31 27 61 60 l53 61 66 -37
c84 -46 91 -52 72 -64 -18 -12 -69 -3 -91 16 -15 13 -21 6 -58 -72 -43 -90
-47 -104 -32 -104 6 0 26 33 47 74 34 70 38 74 61 65 58 -22 109 -3 101 38 -3
17 -140 103 -164 103 -7 0 -37 -27 -68 -61z"/>
<path d="M1747 1294 c-20 -20 31 -24 294 -24 250 0 289 2 289 15 0 13 -39 15
-288 15 -159 0 -292 -3 -295 -6z"/>
<path d="M3290 1287 c0 -8 13 -25 29 -38 15 -13 60 -54 100 -90 l72 -66 -110
-8 c-61 -3 -113 -11 -117 -16 -6 -10 120 -12 189 -3 75 11 71 28 -35 127 -104
98 -128 115 -128 94z"/>
<path d="M2441 1276 c-7 -8 -20 -12 -30 -9 -10 3 -37 -5 -59 -16 -23 -12 -55
-21 -71 -21 -44 0 -75 -15 -89 -42 -11 -19 -19 -23 -43 -20 -24 3 -31 11 -36
33 -5 29 -19 46 -29 36 -3 -2 0 -26 7 -52 l12 -47 46 6 c31 4 52 14 66 31 11
13 36 27 56 30 33 6 41 2 95 -45 37 -32 60 -47 63 -39 2 7 -17 32 -44 55 l-47
42 30 16 c17 9 33 16 35 16 3 0 24 -25 47 -55 39 -51 60 -67 60 -46 0 4 -16
29 -36 55 l-35 46 23 9 c32 12 38 8 83 -54 22 -30 45 -55 53 -55 9 0 10 5 2
19 -5 11 -15 23 -20 26 -17 10 -11 32 10 38 10 3 25 0 33 -7 20 -16 53 -124
73 -236 15 -88 57 -188 85 -205 16 -11 10 15 -16 58 -14 25 -33 85 -44 147
-24 121 -57 227 -79 253 -16 18 -48 22 -71 8 -10 -7 -24 -2 -44 15 -32 27 -69
31 -86 10z"/>
<path d="M2720 1259 c0 -6 5 -19 10 -30 9 -16 7 -19 -10 -19 -11 0 -20 -4 -20
-10 0 -5 16 -10 35 -10 19 0 35 2 35 5 0 2 -8 20 -17 40 -16 34 -33 46 -33 24z"/>
<path d="M1185 1210 c-17 -32 -19 -50 -7 -50 7 0 42 63 42 75 0 16 -22 0 -35
-25z"/>
<path d="M1827 1234 c-4 -4 -7 -20 -7 -35 0 -19 -6 -28 -22 -33 -17 -4 -20 -8
-11 -17 20 -20 50 -1 58 38 6 34 -4 61 -18 47z"/>
<path d="M1935 1230 c-4 -6 -4 -22 -1 -36 6 -22 4 -24 -29 -24 -45 0 -45 -16
0 -24 47 -9 55 -2 55 44 0 39 -13 59 -25 40z"/>
<path d="M1970 1213 c0 -62 9 -73 56 -73 32 0 44 4 44 15 0 10 -10 15 -34 15
-31 0 -34 3 -40 35 -8 42 -26 47 -26 8z"/>
<path d="M2770 1160 c0 -13 -7 -20 -20 -20 -11 0 -20 -4 -20 -10 0 -13 67 -13
75 0 7 12 -12 50 -25 50 -6 0 -10 -9 -10 -20z"/>
<path d="M1676 1135 c-14 -15 -28 -40 -31 -56 -4 -16 -12 -29 -20 -29 -7 0
-18 -7 -25 -15 -10 -12 -9 -15 7 -15 29 0 63 29 63 54 0 23 37 66 58 66 15 0
15 -4 -3 -65 -34 -110 -124 -200 -242 -239 -90 -30 -106 -43 -128 -105 -32
-91 -9 -99 26 -8 l24 62 77 26 c42 14 91 36 110 49 82 57 161 181 170 266 3
26 0 29 -29 32 -25 3 -39 -3 -57 -23z"/>
<path d="M1127 1081 c-23 -39 -4 -49 22 -12 24 34 26 41 8 41 -7 0 -20 -13
-30 -29z"/>
<path d="M1815 1100 c-3 -6 -4 -19 0 -29 4 -15 -1 -20 -30 -25 -50 -10 -44
-26 10 -26 l45 0 0 39 c0 40 -13 61 -25 41z"/>
<path d="M1859 1105 c-3 -28 4 -72 14 -83 12 -15 83 -12 80 3 -1 6 -17 12 -35
15 -26 4 -34 10 -36 30 -4 26 -21 52 -23 35z"/>
<path d="M1967 1104 c-3 -3 -4 -11 -2 -17 2 -7 6 -24 9 -39 6 -26 10 -28 51
-28 25 0 45 5 45 10 0 6 -16 10 -35 10 -31 0 -36 3 -42 30 -6 31 -16 44 -26
34z"/>
<path d="M2070 1096 c0 -7 5 -27 11 -45 10 -28 15 -31 55 -31 24 0 44 5 44 10
0 6 -15 10 -34 10 -30 0 -36 4 -46 35 -11 34 -30 48 -30 21z"/>
<path d="M2810 1090 c0 -13 -10 -24 -27 -31 -39 -15 -16 -32 25 -18 32 11 38
23 26 53 -9 23 -24 20 -24 -4z"/>
<path d="M3227 1043 c-10 -10 -8 -83 2 -83 12 0 21 26 21 61 0 28 -9 37 -23
22z"/>
<path d="M2854 995 c6 -23 4 -25 -29 -25 -19 0 -35 -4 -35 -10 0 -5 23 -10 50
-10 53 0 57 4 38 45 -15 32 -32 33 -24 0z"/>
<path d="M1094 979 c-18 -35 -7 -56 23 -45 15 6 15 8 3 16 -12 7 -12 12 -2 22
6 6 12 18 12 25 0 23 -19 14 -36 -18z"/>
<path d="M1737 984 c-19 -19 23 -24 219 -24 168 0 215 3 212 13 -4 9 -57 13
-214 15 -116 1 -213 -1 -217 -4z"/>
<path d="M1680 920 c0 -6 90 -10 251 -10 164 0 248 3 244 10 -4 6 -98 10 -251
10 -156 0 -244 -4 -244 -10z"/>
<path d="M1000 870 c0 -5 20 -10 45 -10 25 0 45 5 45 10 0 6 -20 10 -45 10
-25 0 -45 -4 -45 -10z"/>
<path d="M2770 870 c0 -6 43 -10 110 -10 67 0 110 4 110 10 0 6 -43 10 -110
10 -67 0 -110 -4 -110 -10z"/>
<path d="M937 646 c-53 -80 -93 -147 -88 -150 12 -8 29 14 111 139 39 61 76
115 81 121 12 15 149 -18 196 -47 38 -23 103 -94 103 -112 0 -7 -24 -75 -54
-152 -49 -127 -59 -172 -35 -148 5 5 34 74 65 153 63 165 64 159 -21 239 -51
49 -128 82 -220 97 l-41 6 -97 -146z"/>
<path d="M990 641 c0 -5 18 -12 39 -16 58 -10 150 -57 204 -105 26 -23 51 -40
54 -36 9 8 -42 61 -92 96 -71 48 -205 88 -205 61z"/>
<path d="M1250 620 c0 -5 8 -13 17 -19 10 -5 15 -13 11 -17 -4 -4 -14 -1 -23
6 -20 17 -32 5 -15 -15 28 -34 80 -1 59 38 -10 18 -49 24 -49 7z"/>
<path d="M2587 623 c-4 -3 -7 -16 -7 -29 0 -24 21 -37 45 -28 23 9 18 24 -7
24 -21 1 -22 2 -5 14 9 7 17 16 17 20 0 8 -35 8 -43 -1z"/>
</g>
</svg>
